<?xml version="1.0" encoding="UTF-8"?>
<!DOCTYPE svg PUBLIC "-//W3C//DTD SVG 1.1//EN" "http://www.w3.org/Graphics/SVG/1.1/DTD/svg11.dtd">
<!-- Creator: CorelDRAW 2019 (64 Bit) -->
<svg xmlns="http://www.w3.org/2000/svg" xml:space="preserve" width="65px" height="6px" version="1.1" style="shape-rendering:geometricPrecision; text-rendering:geometricPrecision; image-rendering:optimizeQuality; fill-rule:evenodd; clip-rule:evenodd"
viewBox="0 0 1.04 0.09"
 xmlns:xlink="http://www.w3.org/1999/xlink">
 <defs>
  <style type="text/css">
   <![CDATA[
    .fil2 {fill:#203152;fill-opacity:0.470588}
    .fil1 {fill:#1262F0}
    .fil0 {fill:#203152}
   ]]>
  </style>
 </defs>
 <g id="Camada_x0020_1">
  <metadata id="CorelCorpID_0Corel-Layer"/>
  <g id="_2878467650240">
   <path class="fil0" d="M0 0.02c0.31,-0.08 0.72,0.08 1.04,0l0 0.03c-0.31,0.08 -0.72,-0.08 -1.04,0l0 -0.03z"/>
   <path class="fil1" d="M0 0.03c0.31,-0.08 0.72,0.08 1.04,0l0 0.02c-0.31,0.08 -0.72,-0.08 -1.04,0l0 -0.02z"/>
   <path class="fil0" d="M0 0.05c0.31,-0.08 0.72,0.08 1.04,0l0 0.04 -1.04 0 0 -0.04z"/>
   <path class="fil2" d="M0 0.04c0.31,-0.08 0.72,0.08 1.04,0l0 0.03c-0.31,0.08 -0.72,-0.08 -1.04,0l0 -0.03z"/>
  </g>
 </g>
</svg>
