<?xml version="1.0" encoding="UTF-8"?>
<!DOCTYPE svg PUBLIC "-//W3C//DTD SVG 1.1//EN" "http://www.w3.org/Graphics/SVG/1.1/DTD/svg11.dtd">
<!-- Creator: CorelDRAW 2019 (64 Bit) -->
<svg xmlns="http://www.w3.org/2000/svg" xml:space="preserve" width="415px" height="592px" version="1.1" style="shape-rendering:geometricPrecision; text-rendering:geometricPrecision; image-rendering:optimizeQuality; fill-rule:evenodd; clip-rule:evenodd"
viewBox="0 0 1.7 2.42"
 xmlns:xlink="http://www.w3.org/1999/xlink">
 <defs>
  <style type="text/css">
   <![CDATA[
    .str0 {stroke:black;stroke-width:0.01;stroke-miterlimit:22.9256}
    .fil1 {fill:#00AEFF}
    .fil0 {fill:#0D1117}
    .fil2 {fill:#FD520E}
   ]]>
  </style>
    <clipPath id="id0">
     <path d="M1.69 1.64l0 0.15c0,0.16 0,0.3 0,0.36 0,0.01 0,0.02 0,0.03 -0.42,0.03 -0.83,0.01 -1.12,-0.36 -0.01,-0.02 -0.02,-0.03 -0.03,-0.05l0 -0.13 0.07 -0.03 0.03 -0.01 0.01 -0.01 -0.01 -0.04 -0.01 -0.04 0 -0.08 0 -0.14 0 -0.03 -0.01 -0.12 -0.01 -0.12 0 -0.04 0 -0.06 0.03 -0.05 0.03 -0.06 0.03 -0.03 0.01 -0.02 0.01 -0.01 0.01 -0.03 0.02 -0.05 0.05 -0.04 0.05 -0.01 0.03 0 0.05 0 0 -0.01 0.02 0 0.05 0.01 0.03 0.01 0.01 0.01 0.03 -0.01 0.04 0.01 0.07 0.04 0.09 0.07 0.05 0.07 0.01 0.03 0 0.01 0.01 0 0 0 0 0.01 0 0.02 0.01 0.06 0.01 0.01 0 0.02 0 0.05 0 0.03 0 0.01 0 0.01 0.02 -0.01 0.01 0 0 0 0.01 0.01 0.02 0.05 0.01 0.01c0,0 0,0 0,0l0 0.05 0.01 0.06 0 0.06 -0.02 0.02 -0.01 0.13 -0.01 0.08 0.05 0.02 0.03 0.01 0.07 0.02 0.07 0.02 0.07 0.03z"/>
    </clipPath>
 </defs>
 <g id="Camada_x0020_1">
  <metadata id="CorelCorpID_0Corel-Layer"/>
  <g id="_2367584678976">
   <rect class="fil0 str0" width="1.69" height="2.41"/>
   <path class="fil1" d="M0.3 0.11c0.14,0.04 0.42,0.15 0.46,-0.07l0.01 -0.03c0,-0.01 -0.01,-0.01 -0.01,-0.01 -0.04,0 -0.09,0 -0.13,0l-0.61 0c-0.02,0 -0.02,0 -0.02,0.04 0,0.05 0,0.49 0,0.49l0 0c0.01,0.01 0.02,0 0.02,0 0.08,-0.07 0.17,-0.07 0.23,-0.19 0.01,-0.05 -0.02,-0.08 -0.02,-0.13 0,-0.04 0,-0.11 0.07,-0.1z"/>
   <path class="fil1" d="M0.57 1.82c0.29,0.37 0.7,0.39 1.12,0.36 0,-0.01 0,-0.02 0,-0.03 0,-0.18 0,-1.11 0,-1.11 -0.05,-0.03 -0.12,0 -0.21,-0.07 -0.04,-0.04 -0.06,-0.06 -0.1,-0.12 -0.06,-0.05 -0.09,-0.17 -0.14,-0.24 -0.39,-0.51 -1.43,0.22 -0.67,1.21z"/>
   <path class="fil2" d="M0.32 2.31c-0.01,0 -0.02,0.01 -0.03,0 -0.2,-0.07 -0.03,-0.46 -0.27,-0.52 -0.02,0 -0.02,0 -0.02,0.04l0 0.55c0,0.05 0,0.04 0.03,0.04l0.52 0c0.03,0 0.17,0 0.18,0 0,-0.01 0,-0.03 0,-0.03 -0.06,-0.19 -0.29,-0.11 -0.41,-0.08z"/>
   <g style="clip-path:url(#id0)">
    <image x="0.54" y="0.16" width="1.15" height="2.05" xlink:href="githublogo_Images\githublogo_ImgID1.png"/>
   </g>
   <path class="fil2" d="M0.63 1.74c0,-0.02 0,-0.05 -0.01,-0.06 -0.1,-0.15 -0.31,0.04 -0.43,-0.08 -0.05,-0.05 -0.09,-0.05 -0.1,0.03 -0.05,0.23 0.47,0.43 0.54,0.11z"/>
  </g>
 </g>
</svg>
