<?xml version="1.0" encoding="UTF-8"?>
<!DOCTYPE svg PUBLIC "-//W3C//DTD SVG 1.1//EN" "http://www.w3.org/Graphics/SVG/1.1/DTD/svg11.dtd">
<!-- Creator: CorelDRAW 2019 (64 Bit) -->
<svg xmlns="http://www.w3.org/2000/svg" xml:space="preserve" width="68px" height="14px" version="1.1" style="shape-rendering:geometricPrecision; text-rendering:geometricPrecision; image-rendering:optimizeQuality; fill-rule:evenodd; clip-rule:evenodd"
viewBox="0 0 2.45 0.5"
 xmlns:xlink="http://www.w3.org/1999/xlink">
 <defs>
  <style type="text/css">
   <![CDATA[
    .fil0 {fill:#D0E1FA;fill-rule:nonzero}
   ]]>
  </style>
 </defs>
 <g id="Camada_x0020_1">
  <metadata id="CorelCorpID_0Corel-Layer"/>
  <g id="_1529767498000">
   <path class="fil0" d="M1.92 0.44l0.02 0c0.02,0 0.02,0 0.03,-0.01 0.01,0 0.01,-0.01 0.01,-0.02l0.08 0c0,0.03 -0.01,0.05 -0.03,0.07 -0.01,0.01 -0.04,0.02 -0.08,0.02l-0.03 0 0 -0.06zm0.06 -0.11l0 -0.16 0.08 0 0 0.16 -0.08 0zm0 -0.24c0,-0.01 0,-0.02 -0.01,-0.03 -0.01,0 -0.01,0 -0.03,0l-0.02 0 0 -0.06 0.03 0c0.04,0 0.07,0.01 0.08,0.02 0.02,0.02 0.03,0.04 0.03,0.07l-0.08 0z"/>
   <path class="fil0" d="M1.55 0.5c-0.02,0 -0.04,-0.01 -0.06,-0.02 -0.01,-0.01 -0.02,-0.03 -0.02,-0.05l0 -0.02 0.07 0c0,0.01 0,0.02 0.01,0.02 0.01,0.01 0.02,0.01 0.03,0.01l0.01 0 0 0.06 -0.04 0zm-0.08 -0.17l0 -0.01c0,-0.02 0,-0.03 -0.01,-0.03 -0.01,-0.01 -0.02,-0.01 -0.04,-0.01l0 -0.06c0.02,0 0.03,0 0.04,-0.01 0.01,0 0.01,-0.01 0.01,-0.03l0 -0.01 0.07 0 0 0.02c0,0.03 -0.01,0.05 -0.04,0.06l0 0c0.03,0.01 0.04,0.03 0.04,0.06l0 0.02 -0.07 0zm0 -0.24l0 -0.02c0,-0.02 0.01,-0.04 0.02,-0.05 0.02,-0.01 0.04,-0.02 0.06,-0.02l0.04 0 0 0.06 -0.01 0c-0.01,0 -0.02,0 -0.03,0.01 -0.01,0 -0.01,0.01 -0.01,0.02l-0.07 0z"/>
   <path class="fil0" d="M0.73 0.47c-0.03,0 -0.06,-0.01 -0.08,-0.02 -0.03,-0.02 -0.04,-0.05 -0.04,-0.09l0 -0.33 0.09 0 0 0.34c0,0.01 0,0.03 0.01,0.03 0,0.01 0.01,0.01 0.03,0.01 0.01,0 0.02,0 0.03,-0.01 0,0 0.01,-0.02 0.01,-0.03l0 -0.34 0.08 0 0 0.33c0,0.04 -0.02,0.07 -0.04,0.09 -0.02,0.01 -0.05,0.02 -0.09,0.02z"/>
   <polygon class="fil0" points="1.04,0.41 1.19,0.09 1.04,0.09 1.04,0.03 1.27,0.03 1.27,0.09 1.12,0.41 1.27,0.41 1.27,0.47 1.04,0.47 "/>
   <polygon class="fil0" points="0,0.28 0,0.22 0.33,0.09 0.33,0.17 0.1,0.25 0.33,0.33 0.33,0.41 "/>
   <polygon class="fil0" points="2.45,0.28 2.45,0.22 2.12,0.09 2.12,0.17 2.35,0.25 2.12,0.33 2.12,0.41 "/>
   <path class="fil0" d="M1.75 0.47c-0.03,0 -0.06,-0.01 -0.09,-0.02 -0.02,-0.02 -0.03,-0.05 -0.03,-0.09l0 -0.23c0,-0.03 0.01,-0.06 0.03,-0.08 0.03,-0.02 0.06,-0.03 0.09,-0.03 0.04,0 0.07,0.01 0.09,0.03 0.02,0.02 0.03,0.05 0.03,0.08l0 0.04 -0.07 0 0 -0.04c0,-0.03 -0.02,-0.04 -0.04,-0.04 -0.03,0 -0.05,0.01 -0.05,0.04l0 0.24c0,0.03 0.02,0.04 0.05,0.04 0.02,0 0.04,-0.01 0.04,-0.04l0 -0.09 -0.04 0 0 -0.06 0.11 0 0 0.14c0,0.04 -0.01,0.07 -0.03,0.09 -0.02,0.01 -0.05,0.02 -0.09,0.02z"/>
   <polygon class="fil0" points="0.91,0.03 0.99,0.03 0.99,0.47 0.91,0.47 "/>
   <polygon class="fil0" points="0.36,0.03 0.45,0.03 0.45,0.41 0.58,0.41 0.58,0.47 0.36,0.47 "/>
  </g>
 </g>
</svg>
